<svg height="109" viewbox="0 0 109 109" width="109" xmlns="http://www.w3.org/2000/svg">
	<g id="kvg:StrokePaths_03431" style="fill:none;stroke:#000000;stroke-width:3;stroke-linecap:round;stroke-linejoin:round;" xmlns:kvg="http://kanjivg.tagaini.net">
		<g id="kvg:03431" kvg:element="㐱">
			<g id="kvg:03431-g1" kvg:phon="人+彡" kvg:position="right">
				<g id="kvg:03431-g2" kvg:element="人">
					<path d="M54.1,14.2c0.055,0.73,0.055,1.96-0.396,2.96C50.1,25.1,44.2,34.9,32.2,45.5" id="kvg:03431-s1" kvg:type="㇒"></path>
					<path d="M54.7,17.9c3.99,3.96,19.4,15.4,27.4,21.1c2.83,2,5.56,3.67,8.77,5.09" id="kvg:03431-s2" kvg:type="㇏"></path>
				</g>
				<g id="kvg:03431-g3" kvg:element="彡">
					<path d="M61.7,38.9c0.066,0.45-0.231,1.77-0.682,2.3C57.4,45.5,49.8,51.6,39.5,57" id="kvg:03431-s3" kvg:type="㇒"></path>
					<path d="M67.9,56c0.088,0.51-0.176,1.43-0.715,2.04c-4.92,5.5-11.9,11.1-28.6,18.8" id="kvg:03431-s4" kvg:type="㇒"></path>
					<path d="M77.9,71c0.132,0.62-0.044,1.72-0.803,2.46C70.9,79.6,56.7,91,32.6,97" id="kvg:03431-s5" kvg:type="㇒"></path>
				</g>
			</g>
		</g>
	</g>
	<g id="kvg:StrokeNumbers_03431" style="font-size:8;fill:#808080" xmlns:kvg="http://kanjivg.tagaini.net">
		<text transform="matrix(1 0 0 1 44.8 16.5)">1</text>
		<text transform="matrix(1 0 0 1 63.5 22.6)">2</text>
		<text transform="matrix(1 0 0 1 53.8 39)">3</text>
		<text transform="matrix(1 0 0 1 58.8 55.5)">4</text>
		<text transform="matrix(1 0 0 1 68.7 70.4)">5</text>
	</g>
</svg>