<svg height="109" viewbox="0 0 109 109" width="109" xmlns="http://www.w3.org/2000/svg">
	<g id="kvg:StrokePaths_04e8f" style="fill:none;stroke:#000000;stroke-width:3;stroke-linecap:round;stroke-linejoin:round;" xmlns:kvg="http://kanjivg.tagaini.net">
		<g id="kvg:04e8f" kvg:element="亏">
			<g id="kvg:04e8f-g1" kvg:position="bottom">
				<g id="kvg:04e8f-g2" kvg:element="二">
					<g id="kvg:04e8f-g3" kvg:position="top">
						<path d="M39.6,22.8c0.576,0.3,2.82,0.336,3.4,0.3c6.13-0.396,16.9-2.8,24.4-4.01c0.936-0.156,3.32,0.144,3.8,0.288" id="kvg:04e8f-s1" kvg:type="㇐"></path>
					</g>
					<g id="kvg:04e8f-g4" kvg:position="bottom">
						<path d="M25.4,39.2c1.08,0.36,3.07,0.444,4.15,0.36c6.76-0.54,40.5-6.02,52.5-6.5c1.8-0.072,2.89,0.168,3.79,0.348" id="kvg:04e8f-s2" kvg:type="㇐"></path>
					</g>
				</g>
				<path d="M45,39.6c0.6,1.15,0.504,2.46,0.12,4.27c-0.444,2.08-3.43,7.1-4.74,10.4c-1.15,2.9-0.552,4.4,3.6,3.66c7.55-1.36,16.2-3.76,26.3-5.02c4.86-0.612,6.16,1.97,4.96,6.5C72.8,68.3,69.5,77,62.6,86c-5.88,7.69-8.15,1.43-9.05-0.792" id="kvg:04e8f-s3" kvg:type="㇉"></path>
			</g>
		</g>
	</g>
	<g id="kvg:StrokeNumbers_04e8f" style="font-size:8;fill:#808080" xmlns:kvg="http://kanjivg.tagaini.net">
		<text transform="matrix(1 0 0 1 43.7 18.7)">1</text>
		<text transform="matrix(1 0 0 1 29 35)">2</text>
		<text transform="matrix(1 0 0 1 33.8 49.4)">3</text>
	</g>
</svg>