<svg height="109" viewbox="0 0 109 109" width="109" xmlns="http://www.w3.org/2000/svg">
	<g id="kvg:StrokePaths_053b7" style="fill:none;stroke:#000000;stroke-width:3;stroke-linecap:round;stroke-linejoin:round;" xmlns:kvg="http://kanjivg.tagaini.net">
		<g id="kvg:053b7" kvg:element="厷">
			<g id="kvg:053b7-g1" kvg:position="bottom">
				<path d="M24,40.4c2.72,1.2,5.87,0.859,8.65,0.484c15-1.99,38.2-4.59,51.7-5.31c3.13-0.169,6.31-0.387,9.38,0.424" id="kvg:053b7-s1" kvg:type="㇐"></path>
				<path d="M57.2,17c0.11,1.74-0.09,4.11-0.71,6.08C48.8,47.6,39.5,69.3,18.5,88.4" id="kvg:053b7-s2" kvg:type="㇒"></path>
				<g id="kvg:053b7-g2" kvg:element="厶">
					<path d="M64.7,50.3c0.32,1.52-0.16,3.07-0.6,4C59,65.1,52.2,75.6,44.6,86.4c-2.15,3.01-1.55,4.31,1.83,3.4c8.7-2.33,21.2-5.82,34.5-9.7" id="kvg:053b7-s3" kvg:type="㇜"></path>
					<path d="M74.1,67.3c7.75,9.22,13.1,18.5,14.4,25.5" id="kvg:053b7-s4" kvg:type="㇔"></path>
				</g>
			</g>
		</g>
	</g>
	<g id="kvg:StrokeNumbers_053b7" style="font-size:8;fill:#808080" xmlns:kvg="http://kanjivg.tagaini.net">
		<text transform="matrix(1 0 0 1 16 42.1)">1</text>
		<text transform="matrix(1 0 0 1 47.2 17.9)">2</text>
		<text transform="matrix(1 0 0 1 56 50.2)">3</text>
		<text transform="matrix(1 0 0 1 74.2 65.1)">4</text>
	</g>
</svg>