<svg height="109" viewbox="0 0 109 109" width="109" xmlns="http://www.w3.org/2000/svg">
	<g id="kvg:StrokePaths_054a0" style="fill:none;stroke:#000000;stroke-width:3;stroke-linecap:round;stroke-linejoin:round;" xmlns:kvg="http://kanjivg.tagaini.net">
		<g id="kvg:054a0" kvg:element="咠">
			<g id="kvg:054a0-g1" kvg:element="咠" kvg:position="bottom">
				<g id="kvg:054a0-g2" kvg:element="口">
					<path d="M32.3,16.2c0.55,0.266,1.18,0.427,1.35,0.797c1.58,3.42,2.38,10.1,3.69,14.8" id="kvg:054a0-s1" kvg:type="㇑"></path>
					<path d="M34.4,18.5c11.2-1.34,28.7-3.7,35.1-3.74c1.44-0.0115,2.75,1.88,2.43,2.61c-0.74,1.71-1.99,5.18-4.1,9.2" id="kvg:054a0-s2" kvg:type="㇕b"></path>
					<path d="M37.6,29.2c7.56-0.381,22.2-2.08,32.6-2.67" id="kvg:054a0-s3" kvg:type="㇐b"></path>
				</g>
				<g id="kvg:054a0-g3" kvg:element="耳">
					<path d="M24.1,40.3c1.5,0.335,4.26,0.427,5.77,0.335c14.2-0.889,28.8-4.78,49.2-5.17c2.5-0.0462,4.01,0.162,5.26,0.323" id="kvg:054a0-s4" kvg:type="㇐"></path>
					<path d="M36.6,41c0.88,0.612,1.96,2.79,1.96,3.89S38.3,75.9,38.3,79.8" id="kvg:054a0-s5" kvg:type="㇑a"></path>
					<path d="M38.5,52.9c14.1-1.35,17.9-1.54,30.3-2.21" id="kvg:054a0-s6" kvg:type="㇐a"></path>
					<path d="M39,66.3c11.5-0.936,16.1-1.9,30.1-2.56" id="kvg:054a0-s7" kvg:type="㇐a"></path>
					<path d="M21,83.5c0.47,0.739,2.62,1.77,4.27,1.48C31.9,83.7,69.8,75,80,73.1" id="kvg:054a0-s8" kvg:type="㇀"></path>
					<path d="M67.4,39.7c1.53,0.97,1.68,2.61,1.68,3.7s0.24,42.8,0.24,51.8" id="kvg:054a0-s9" kvg:type="㇑"></path>
				</g>
			</g>
		</g>
	</g>
	<g id="kvg:StrokeNumbers_054a0" style="font-size:8;fill:#808080" xmlns:kvg="http://kanjivg.tagaini.net">
		<text transform="matrix(1 0 0 1 26.5 22.8)">1</text>
		<text transform="matrix(1 0 0 1 34.5 14.8)">2</text>
		<text transform="matrix(1 0 0 1 40.5 26.3)">3</text>
		<text transform="matrix(1 0 0 1 17.5 40.3)">4</text>
		<text transform="matrix(1 0 0 1 30.5 51.7)">5</text>
		<text transform="matrix(1 0 0 1 43.5 49.4)">6</text>
		<text transform="matrix(1 0 0 1 42.5 62.1)">7</text>
		<text transform="matrix(1 0 0 1 16.5 78.1)">8</text>
		<text transform="matrix(1 0 0 1 58.5 46)">9</text>
	</g>
</svg>