<svg height="109" viewbox="0 0 109 109" width="109" xmlns="http://www.w3.org/2000/svg">
	<g id="kvg:StrokePaths_05906" style="fill:none;stroke:#000000;stroke-width:3;stroke-linecap:round;stroke-linejoin:round;" xmlns:kvg="http://kanjivg.tagaini.net">
		<g id="kvg:05906" kvg:element="夆">
			<g id="kvg:05906-g1" kvg:element="夆" kvg:position="right">
				<g id="kvg:05906-g2" kvg:element="夂" kvg:position="top">
					<path d="M46.8,10.5c0.05,0.58-0.23,1.56-0.6,2.34c-2.71,5.78-7.7,15.5-17,22.2" id="kvg:05906-s1" kvg:type="㇒"></path>
					<path d="M46.2,18.7c1.26,0.15,2.7-0.13,3.92-0.39c3.77-0.8,11.2-3.14,14.4-4c2.61-0.69,3.5,1.09,2.69,2.9C62.5,27.9,47.2,45.9,30.3,52.2" id="kvg:05906-s2" kvg:type="㇇"></path>
					<path d="M40,26.1c5.22,2.77,21.8,12.3,31.9,17.3c3.34,1.65,6.78,3.39,10.3,4.66" id="kvg:05906-s3" kvg:type="㇏"></path>
				</g>
				<g id="kvg:05906-g3" kvg:element="丰" kvg:phon="丰" kvg:position="bottom">
					<g id="kvg:05906-g4" kvg:element="三">
						<g id="kvg:05906-g5" kvg:element="一" kvg:position="top">
							<path d="M39.8,56.6c1.54,0.71,4.06,0.52,5.69,0.33c7.6-0.88,14.5-2.1,21-2.99c1.36-0.18,3.24-0.75,4.61-0.37" id="kvg:05906-s4" kvg:type="㇐"></path>
						</g>
						<g id="kvg:05906-g6" kvg:position="bottom">
							<g id="kvg:05906-g7" kvg:element="一">
								<path d="M38.8,68.9c1.46,0.67,3.88,0.54,5.45,0.36c8.16-0.9,17.4-2.14,24.4-3.04c1.48-0.19,3.03-0.51,4.5-0.1" id="kvg:05906-s5" kvg:type="㇐"></path>
							</g>
							<g id="kvg:05906-g8" kvg:element="一">
								<path d="M27.5,83c3.2,0.75,5.81,0.74,8.45,0.37c13.2-1.85,26.9-3.37,40.2-3.98c2.55-0.12,5.17-0.04,7.63,0.63" id="kvg:05906-s6" kvg:type="㇐"></path>
							</g>
						</g>
					</g>
					<g id="kvg:05906-g9" kvg:element="丨">
						<path d="M54.1,46c0.9,0.9,1.21,2.25,1.21,3.74c0,6.97-0.05,31.1,0.01,44.8c0.01,2.53,0.02,4.7,0.02,6.35" id="kvg:05906-s7" kvg:type="㇑"></path>
					</g>
				</g>
			</g>
		</g>
	</g>
	<g id="kvg:StrokeNumbers_05906" style="font-size:8;fill:#808080" xmlns:kvg="http://kanjivg.tagaini.net">
		<text transform="matrix(1 0 0 1 38.5 11.5)">1</text>
		<text transform="matrix(1 0 0 1 50.5 14.5)">2</text>
		<text transform="matrix(1 0 0 1 47.5 27.5)">3</text>
		<text transform="matrix(1 0 0 1 41.5 54.5)">4</text>
		<text transform="matrix(1 0 0 1 37.5 66.5)">5</text>
		<text transform="matrix(1 0 0 1 26.5 80.5)">6</text>
		<text transform="matrix(1 0 0 1 45.5 50.5)">7</text>
	</g>
</svg>