<svg height="109" viewbox="0 0 109 109" width="109" xmlns="http://www.w3.org/2000/svg">
	<g id="kvg:StrokePaths_05a04" style="fill:none;stroke:#000000;stroke-width:3;stroke-linecap:round;stroke-linejoin:round;" xmlns:kvg="http://kanjivg.tagaini.net">
		<g id="kvg:05a04" kvg:element="娄">
			<g id="kvg:05a04-g1" kvg:element="屎" kvg:position="tare">
				<g id="kvg:05a04-g2" kvg:element="娄" kvg:part="1">
					<g id="kvg:05a04-g3" kvg:element="米">
						<path d="M36,25.7c2.73,1.58,6.83,6.33,7.51,8.79" id="kvg:05a04-s1" kvg:type="㇔"></path>
						<path d="M76.7,23.1c0.088,0.792-0.066,1.54-0.44,2.24c-1.13,2.39-4.14,5.95-8.07,10.2" id="kvg:05a04-s2" kvg:type="㇒"></path>
						<path d="M25.9,41.2c3.6,0.946,7.12,0.44,10.9,0.011c11.4-1.31,31.1-3.09,41.9-3.62c2.74-0.132,5.42-0.462,8.13-0.066" id="kvg:05a04-s3" kvg:type="㇐"></path>
						<path d="M54.8,20.5c1.07,1.07,1.33,2.2,1.33,3.41c0,5.14,0.055,17.9,0.077,27.8c0.011,3.65,0.022,6.91,0.022,9.21" id="kvg:05a04-s4" kvg:type="㇑"></path>
						<path d="M53.4,39.9c-0.473,1.26-1.39,2.65-2.43,3.93c-5.82,7.08-16.4,15.6-25.7,19.3" id="kvg:05a04-s5" kvg:type="㇒"></path>
						<path d="M57.4,39.9c2.84,1.76,11.7,7.77,18.8,12.3c3.54,2.44,7.51,4.08,11.4,6.01" id="kvg:05a04-s6" kvg:type="㇏"></path>
					</g>
				</g>
			</g>
			<g id="kvg:05a04-g4" kvg:element="娄" kvg:part="2" kvg:position="tarec">
				<g id="kvg:05a04-g5" kvg:element="女">
					<path d="M51.2,63.3c0.154,1.17,0,2.25-0.462,3.28c-1.72,4.2-6.13,10.9-10.6,15.9c-1.41,1.54-2.41,3.01,0.363,3.04c12.9,0.099,30.9,6.7,36.7,13.5" id="kvg:05a04-s7" kvg:type="㇛"></path>
					<path d="M69.5,69.5c0.253,1.38-0.077,2.35-0.517,3.47c-3.6,8.99-14.2,20.9-39.9,27.6" id="kvg:05a04-s8" kvg:type="㇒"></path>
					<path d="M20.5,72.1c4.41,1.1,8.76,0.418,13.4,0.055c15-1.2,28.6-2.3,44.7-2.64c4.41-0.088,8.77,0.374,13.1,1.25" id="kvg:05a04-s9" kvg:type="㇐"></path>
				</g>
			</g>
		</g>
	</g>
	<g id="kvg:StrokeNumbers_05a04" style="font-size:8;fill:#808080" xmlns:kvg="http://kanjivg.tagaini.net">
		<text transform="matrix(1 0 0 1 29.1 28)">1</text>
		<text transform="matrix(1 0 0 1 67.6 25.8)">2</text>
		<text transform="matrix(1 0 0 1 25.8 37.9)">3</text>
		<text transform="matrix(1 0 0 1 46.7 28)">4</text>
		<text transform="matrix(1 0 0 1 35.4 51.2)">5</text>
		<text transform="matrix(1 0 0 1 73.1 47.8)">6</text>
		<text transform="matrix(1 0 0 1 44.5 59.9)">7</text>
		<text transform="matrix(1 0 0 1 64.2 64.2)">8</text>
		<text transform="matrix(1 0 0 1 25.8 69.8)">9</text>
	</g>
</svg>