<svg height="109" viewbox="0 0 109 109" width="109" xmlns="http://www.w3.org/2000/svg">
	<g id="kvg:StrokePaths_05de9" style="fill:none;stroke:#000000;stroke-width:3;stroke-linecap:round;stroke-linejoin:round;" xmlns:kvg="http://kanjivg.tagaini.net">
		<g id="kvg:05de9" kvg:element="巩">
			<g id="kvg:05de9-g1" kvg:phon="工凡" kvg:position="top">
				<g id="kvg:05de9-g2" kvg:element="工" kvg:position="left">
					<path d="M19.8,35.5c1.5,1.29,4.09,0.587,5.71,0.231c4.97-1.07,13.5-4.32,18.6-5.87c1.27-0.386,2.57-0.819,3.83-0.108" id="kvg:05de9-s1" kvg:type="㇐"></path>
					<path d="M33.6,37.2c0.954,1.48,1.08,3.76,1.08,6.23C34.7,53.5,34.7,69,34.7,73.9" id="kvg:05de9-s2" kvg:type="㇑a"></path>
					<path d="M20.6,84.2c0.861,1.35,2.19,1.4,3.29,0.447C30.7,78.9,42.6,69.2,49.3,63.5" id="kvg:05de9-s3" kvg:type="㇀/㇐"></path>
				</g>
				<g id="kvg:05de9-g3" kvg:element="凡" kvg:position="right">
					<g id="kvg:05de9-g4" kvg:element="几">
						<g id="kvg:05de9-g5" kvg:element="丿">
							<path d="M59,26.4c0.851,1.32,1.06,2.99,1.01,4.83C59.4,50.4,58.1,73,47.6,86.3" id="kvg:05de9-s4" kvg:type="㇒"></path>
						</g>
						<path d="M60.7,29c2.41-0.587,15.8-3.67,17.7-4.27c1.94-0.587,3.36,0.909,3.05,3.87C80.2,40.8,79.4,54.6,79.4,64.5c0,9.09,1.84,14.5,8.22,14.5c9.54,0,10.7-1.55,10.7-9.09" id="kvg:05de9-s5" kvg:type="㇈b"></path>
					</g>
					<g id="kvg:05de9-g6" kvg:element="丶">
						<path d="M65.2,46.2c4.15,5.77,6.53,11.9,7.81,17.3" id="kvg:05de9-s6" kvg:type="㇔"></path>
					</g>
				</g>
			</g>
		</g>
	</g>
	<g id="kvg:StrokeNumbers_05de9" style="font-size:8;fill:#808080" xmlns:kvg="http://kanjivg.tagaini.net">
		<text transform="matrix(1 0 0 1 14.1 33.7)">1</text>
		<text transform="matrix(1 0 0 1 27.3 51.1)">2</text>
		<text transform="matrix(1 0 0 1 12.7 89.3)">3</text>
		<text transform="matrix(1 0 0 1 52.7 40.6)">4</text>
		<text transform="matrix(1 0 0 1 63.2 23.5)">5</text>
		<text transform="matrix(1 0 0 1 67.8 43.6)">6</text>
	</g>
</svg>