<svg height="109" viewbox="0 0 109 109" width="109" xmlns="http://www.w3.org/2000/svg">
	<g id="kvg:StrokePaths_081e4" style="fill:none;stroke:#000000;stroke-width:3;stroke-linecap:round;stroke-linejoin:round;" xmlns:kvg="http://kanjivg.tagaini.net">
		<g id="kvg:081e4" kvg:element="臤">
			<g id="kvg:081e4-g1" kvg:phon="臤" kvg:position="top">
				<g id="kvg:081e4-g2" kvg:element="臣" kvg:position="left">
					<path d="M16,24.3c0.9,1.27,1.1,2.98,1.1,4.97c0,0.669,0.385,39.2,0.463,57.2c0.022,4.45,0.022,7.64,0.011,8.68" id="kvg:081e4-s1" kvg:type="㇑"></path>
					<path d="M18.1,27.6c3.6-0.652,18.8-3.45,28.5-4.58c1.74-0.202,3.8-0.84,5.5-0.342" id="kvg:081e4-s2" kvg:type="㇐b"></path>
					<path d="M33,27c0.705,1,1.1,2.08,1.1,3.42c0,2.56-0.066,8-0.066,12.8" id="kvg:081e4-s3" kvg:type="㇑a"></path>
					<path d="M18.6,47.3c8.6-1.63,19.7-2.95,26.5-4.1c2.95-0.497,5.65-0.792,4.7,4.44c-0.715,3.9-1.56,7.55-2.8,13.1" id="kvg:081e4-s4" kvg:type="㇕b"></path>
					<path d="M18.8,65.4c4.15-0.233,16.7-2.02,24.9-3.1c2.6-0.342,4.6-0.219,5.5-0.326" id="kvg:081e4-s5" kvg:type="㇐b"></path>
					<path d="M33.5,65.4c0.64,0.903,0.825,2.4,0.825,3.8c0,5.2-0.011,8.7-0.011,15.3" id="kvg:081e4-s6" kvg:type="㇑a"></path>
					<path d="M19.2,88.4c3.62-0.652,19-2.86,28.8-3.88c1.71-0.186,3.7-0.792,5.35-0.295" id="kvg:081e4-s7" kvg:type="㇐b"></path>
				</g>
				<g id="kvg:081e4-g3" kvg:element="又" kvg:position="right">
					<path d="M59,30.8c2.3,0.792,5.15,0.156,7.5-0.544c5.15-1.56,14.6-4.77,19-6.27c3.27-1.14,5.1,0.87,3.62,6.21C82,55.6,73,70.4,59.5,82.4" id="kvg:081e4-s8" kvg:type="㇇"></path>
					<path d="M59,42.6c3.52,0.931,18.6,20.3,31,34.8c2.62,3.06,5.35,5.38,8.25,7.14" id="kvg:081e4-s9" kvg:type="㇏"></path>
				</g>
			</g>
		</g>
	</g>
	<g id="kvg:StrokeNumbers_081e4" style="font-size:8;fill:#808080" xmlns:kvg="http://kanjivg.tagaini.net">
		<text transform="matrix(1 0 0 1 8.7 38.3)">1</text>
		<text transform="matrix(1 0 0 1 20.6 21.8)">2</text>
		<text transform="matrix(1 0 0 1 38.2 37.2)">3</text>
		<text transform="matrix(1 0 0 1 22 42.7)">4</text>
		<text transform="matrix(1 0 0 1 22 61.3)">5</text>
		<text transform="matrix(1 0 0 1 38.2 77.4)">6</text>
		<text transform="matrix(1 0 0 1 22 84)">7</text>
		<text transform="matrix(1 0 0 1 59 26.4)">8</text>
		<text transform="matrix(1 0 0 1 58.5 56.8)">9</text>
	</g>
</svg>