<svg height="109" viewbox="0 0 109 109" width="109" xmlns="http://www.w3.org/2000/svg">
	<g id="kvg:StrokePaths_french_maid" style="fill:none;stroke:#000000;stroke-width:3;stroke-linecap:round;stroke-linejoin:round;" xmlns:kvg="http://kanjivg.tagaini.net">
		<g id="kvg:french_maid" kvg:element="french_maid">
			<g id="kvg:french_maid-g1" kvg:phon="侵right/帚T＋又" kvg:position="right">
				<g id="kvg:french_maid-g2" kvg:element="⺕" kvg:original="彑" kvg:position="top" kvg:variant="true">
					<path d="M36.7,13.5c2.01,0.81,4.46,0.64,6.59,0.39c6.46-0.76,21.9-2.68,26.9-3.33c3.01-0.39,4.97,0.05,4.58,3.56c-0.59,5.32-1.28,11.6-1.83,16.1c-0.26,2.13-0.5,3.9-0.68,5.06" id="kvg:french_maid-s1" kvg:type="㇕"></path>
					<path d="M35.5,24.6c2.84,0.66,4.81,0.46,7.08,0.2c11.2-1.3,17.1-2.17,30.1-3.72" id="kvg:french_maid-s2" kvg:type="㇐c"></path>
					<path d="M34.3,35.8c2.59,0.53,4.77,0.5,6.97,0.3c10.3-0.96,18.1-2.39,30.2-3.82" id="kvg:french_maid-s3" kvg:type="㇐c"></path>
				</g>
				<g id="kvg:french_maid-g3" kvg:position="bottom">
					<g id="kvg:french_maid-g4" kvg:element="冖">
						<path d="M31.9,47c-0.15,3.49-3.75,12.6-5.03,14.7" id="kvg:french_maid-s4" kvg:type="㇔"></path>
						<path d="M32.6,48.5c14.5-2.15,29.3-3.9,44.4-4.95c13.2-0.91,1.97,7.72,0.73,8.86" id="kvg:french_maid-s5" kvg:type="㇖b"></path>
					</g>
					<g id="kvg:french_maid-g5" kvg:element="又">
						<path d="M37.8,61.6c2.26,0.44,4.01,0.26,6.32-0.08c5.04-0.74,16.2-2.91,19.9-3.59c2.99-0.56,4.55,1.25,3.21,4.06C58.9,79.4,45.2,91.2,29.2,99" id="kvg:french_maid-s6" kvg:type="㇇"></path>
						<path d="M37.3,68c5.71,0.9,21.7,14.1,36.2,23.9c3,2.01,6.08,3.63,9.95,5.17" id="kvg:french_maid-s7" kvg:type="㇏"></path>
					</g>
				</g>
			</g>
		</g>
	</g>
	<g id="kvg:StrokeNumbers_french_maid" style="font-size:8;fill:#808080" xmlns:kvg="http://kanjivg.tagaini.net">
		<text transform="matrix(1 0 0 1 32.5 10.6)">1</text>
		<text transform="matrix(1 0 0 1 32.5 22.6)">2</text>
		<text transform="matrix(1 0 0 1 32.5 34.5)">3</text>
		<text transform="matrix(1 0 0 1 25.5 47.9)">4</text>
		<text transform="matrix(1 0 0 1 35.5 45.5)">5</text>
		<text transform="matrix(1 0 0 1 39.2 58.5)">6</text>
		<text transform="matrix(1 0 0 1 30.5 70.5)">7</text>
	</g>
</svg>