<svg height="109" viewbox="0 0 109 109" width="109" xmlns="http://www.w3.org/2000/svg">
	<g id="kvg:StrokePaths_futon" style="fill:none;stroke:#000000;stroke-width:3;stroke-linecap:round;stroke-linejoin:round;" xmlns:kvg="http://kanjivg.tagaini.net">
		<g id="kvg:futon" kvg:element="futon">
			<g id="kvg:futon-g1" kvg:element="翟" kvg:phon="翟" kvg:position="right">
				<g id="kvg:futon-g2" kvg:element="羽" kvg:position="top">
					<g id="kvg:futon-g3" kvg:position="left">
						<path d="M28.1,14.3c1.54,0.77,3.05,0.52,5.35,0.26c2-0.22,10.3-1.22,13.5-1.65c2.08-0.28,3.63,0.55,3.63,2.92c0,1.07-0.05,12.2-0.05,17.4c0,2.9,0.06,5.2,0.06,5.91" id="kvg:futon-s1" kvg:type="㇕/㇆"></path>
						<path d="M27.2,25.1c1.81,0.73,4.03,0.5,5.9,0.35c4.83-0.37,14.2-0.93,16.2-1.16" id="kvg:futon-s2" kvg:type="㇐c"></path>
						<path d="M28,36.6c1.9,0.76,3.84,0.44,5.76,0.21c4.58-0.54,13.8-1.56,15.6-1.77" id="kvg:futon-s3" kvg:type="㇐c"></path>
					</g>
					<g id="kvg:futon-g4" kvg:position="right">
						<path d="M58.4,13c1.75,0.46,2.8,0.52,5.1,0.26c1.95-0.22,10-0.99,13.3-1.38c2.15-0.25,3.87,0.33,3.87,2.9c0,0.77,0,11.4,0,17.9c0,2.84,0,4.93,0,5.12" id="kvg:futon-s4" kvg:type="㇕/㇆"></path>
						<path d="M58.7,24c1.43,0.48,3.43,0.48,5.18,0.32c4.55-0.41,12-0.84,15.2-1.12" id="kvg:futon-s5" kvg:type="㇐c"></path>
						<path d="M58.4,35c1.61,0.64,3.14,0.78,4.81,0.65c4.34-0.34,14.3-1.23,16.4-1.46" id="kvg:futon-s6" kvg:type="㇐c"></path>
					</g>
				</g>
				<g id="kvg:futon-g5" kvg:element="隹" kvg:position="bottom">
					<g id="kvg:futon-g6" kvg:element="亻" kvg:original="人" kvg:variant="true">
						<path d="M40.6,42.3c0.18,1.27-0.05,2.68-0.62,3.77c-3.62,6.93-8.41,13.7-16.5,21.5" id="kvg:futon-s7" kvg:type="㇒"></path>
						<path d="M35.2,56.1c0.96,0.96,1,2.49,1,4.14c0,8.19-0.01,21.7-0.02,31c0,3.84,0,6.91,0,8.51" id="kvg:futon-s8" kvg:type="㇑"></path>
					</g>
					<path d="M63.9,42c0.07,0.48-0.02,1.12-0.24,1.53c-1.42,2.64-3.23,4.68-6.49,7.89" id="kvg:futon-s9" kvg:type="㇒"></path>
					<path d="M37,55.1c6.31-0.74,27-2.57,38-3.63c2.23-0.21,4.48-0.37,6.69-0.7" id="kvg:futon-s10" kvg:type="㇐b"></path>
					<path d="M57.8,55.9c0.97,0.85,1.22,1.97,1.22,3.11c0,5.85,0.05,21.1,0.05,30.5" id="kvg:futon-s11" kvg:type="㇑a"></path>
					<path d="M37.3,67c5.88-0.47,23.8-2.12,33.6-2.94c2.18-0.18,4.37-0.35,6.55-0.57" id="kvg:futon-s12" kvg:type="㇐b"></path>
					<path d="M37.5,78.8c5.96-0.44,23.8-1.82,34.1-2.71c2.42-0.21,4.84-0.43,7.27-0.66" id="kvg:futon-s13" kvg:type="㇐b"></path>
					<path d="M37.4,91.9c7.38-0.4,29.7-1.86,42-2.8c2.56-0.2,5.15-0.33,7.71-0.66" id="kvg:futon-s14" kvg:type="㇐b"></path>
				</g>
			</g>
		</g>
	</g>
	<g id="kvg:StrokeNumbers_futon" style="font-size:8;fill:#808080" xmlns:kvg="http://kanjivg.tagaini.net">
		<text transform="matrix(1 0 0 1 26.5 11.5)">1</text>
		<text transform="matrix(1 0 0 1 27.2 23.5)">2</text>
		<text transform="matrix(1 0 0 1 26.5 34.5)">3</text>
		<text transform="matrix(1 0 0 1 57.5 11.5)">4</text>
		<text transform="matrix(1 0 0 1 57.5 22.5)">5</text>
		<text transform="matrix(1 0 0 1 57.5 33.5)">6</text>
		<text transform="matrix(1 0 0 1 29.5 45.5)">7</text>
		<text transform="matrix(1 0 0 1 26.5 72.5)">8</text>
		<text transform="matrix(1 0 0 1 53.5 44.5)">9</text>
		<text transform="matrix(1 0 0 1 44.5 51.1)">10</text>
		<text transform="matrix(1 0 0 1 62.5 61.5)">11</text>
		<text transform="matrix(1 0 0 1 39.6 63.5)">12</text>
		<text transform="matrix(1 0 0 1 39.5 75.5)">13</text>
		<text transform="matrix(1 0 0 1 39.5 88.3)">14</text>
	</g>
</svg>