<svg height="109" viewbox="0 0 109 109" width="109" xmlns="http://www.w3.org/2000/svg">
	<g id="kvg:StrokePaths_hacker" style="fill:none;stroke:#000000;stroke-width:3;stroke-linecap:round;stroke-linejoin:round;" xmlns:kvg="http://kanjivg.tagaini.net">
		<g id="kvg:hacker" kvg:element="hacker">
			<g id="kvg:hacker-g1" kvg:position="right">
				<g id="kvg:hacker-g2" kvg:phon="直T">
					<g id="kvg:hacker-g3" kvg:element="十">
						<path d="M31.3,41.9c2.27,0.811,5.4,0.557,7.74,0.242c10.1-1.38,27.1-3.62,37.3-4.31c2.79-0.194,5.61-0.399,8.37,0.194" id="kvg:hacker-s1" kvg:type="㇐"></path>
						<path d="M54.8,22.2c1.06,1.06,1.89,2.87,1.89,4.6c0,0.907-0.0726,24.5-0.194,30.1" id="kvg:hacker-s2" kvg:type="㇑a"></path>
					</g>
					<g id="kvg:hacker-g4" kvg:element="罒" kvg:original="网" kvg:variant="true">
						<path d="M30.6,59.8c1.03,1.03,1.52,2.07,1.91,3.77c1.49,6.44,2.63,10.4,4.64,18.6c0.242,0.98,0.581,1.99,0.895,3.09" id="kvg:hacker-s3" kvg:type="㇑"></path>
						<path d="M33,60.9c9.31-1.54,38.4-4.98,49.4-6.03c4.12-0.399,6.37,1.49,4.87,5.61c-1.75,4.84-3.89,11.3-5.92,15.5c-0.823,1.73-1.53,2.64-2.39,4.38" id="kvg:hacker-s4" kvg:type="㇕a"></path>
						<path d="M47.5,62.5c0.932,0.932,1.38,2.16,1.59,3.74c0.702,5.33,1.5,11.4,1.64,13.8" id="kvg:hacker-s5" kvg:type="㇑a"></path>
						<path d="M66.7,60.7c0.569,1.23,0.641,2.4,0.351,4.14c-0.69,4.21-0.847,7.99-1.57,13.1" id="kvg:hacker-s6" kvg:type="㇑a"></path>
						<path d="M38.9,83.3c14.7-2.17,28.3-4.14,40.4-4.74" id="kvg:hacker-s7" kvg:type="㇐a"></path>
					</g>
				</g>
			</g>
		</g>
	</g>
	<g id="kvg:StrokeNumbers_hacker" style="font-size:8;fill:#808080" xmlns:kvg="http://kanjivg.tagaini.net">
		<text transform="matrix(1 0 0 1 29.8 38.5)">1</text>
		<text transform="matrix(1 0 0 1 43.1 22.8)">2</text>
		<text transform="matrix(1 0 0 1 23.8 70)">3</text>
		<text transform="matrix(1 0 0 1 29.8 56.6)">4</text>
		<text transform="matrix(1 0 0 1 40.7 68.7)">5</text>
		<text transform="matrix(1 0 0 1 58.8 67.9)">6</text>
		<text transform="matrix(1 0 0 1 39.5 79.6)">7</text>
	</g>
</svg>