<!-- Targeting seaweed from original 落 -->
<svg xmlns="http://www.w3.org/2000/svg" width="109" height="109" viewBox="0 0 109 109">
<g id="kvg:StrokePaths_seaweed" style="fill:none;stroke:#000000;stroke-width:3;stroke-linecap:round;stroke-linejoin:round;">
<g id="kvg:seaweed" kvg:element="seaweed">
	<g id="kvg:seaweed-g1" kvg:element="艹" kvg:variant="true" kvg:original="艸" kvg:position="top" kvg:radical="general">
		<path id="kvg:seaweed-s1" kvg:type="㇐" d="M16.5,25.52c2.5,0.73,6.23,0.68,9.38,0.35C41.5,24.25,65.62,22.5,81,22.12c3.08-0.08,6.48-0.08,9.5,0.66"/>
		<path id="kvg:seaweed-s2" kvg:type="㇑a" d="M34,14.88c1,0.5,2,1.67,2.2,2.46c1.89,7.38,3.76,14.98,4.3,17.67"/>
		<path id="kvg:seaweed-s3" kvg:type="㇑a" d="M71.09,11.88c0.53,1.12,0.66,2.65,0.34,3.98C69.55,23.7,68.8,26.62,66.75,34"/>
	</g>
	<g id="kvg:seaweed-g2" kvg:element="洛" kvg:position="bottom" kvg:phon="洛">
		<g id="kvg:seaweed-g3" kvg:element="氵" kvg:variant="true" kvg:original="水" kvg:position="left">
			<path id="kvg:seaweed-s4" kvg:type="㇔" d="M23.62,39.38c3.07,1.27,7.93,5.24,8.7,7.22"/>
			<path id="kvg:seaweed-s5" kvg:type="㇔" d="M16.88,55.93c3.39,1.23,8.75,5.07,9.6,6.99"/>
			<path id="kvg:seaweed-s6" kvg:type="㇀" d="M15.25,92.87c1.33,0.21,2.6-0.14,3.41-1.16c3.68-4.71,7.37-10.46,10.72-16.46"/>
		</g>
	</g>
</g>
</g>
<g id="kvg:StrokeNumbers_seaweed" style="font-size:8;fill:#808080">
	<text transform="matrix(1 0 0 1 9.75 25.63)">1</text>
	<text transform="matrix(1 0 0 1 25.50 15.50)">2</text>
	<text transform="matrix(1 0 0 1 61.50 13.50)">3</text>
	<text transform="matrix(1 0 0 1 15.50 39.13)">4</text>
	<text transform="matrix(1 0 0 1 9.75 56.50)">5</text>
	<text transform="matrix(1 0 0 1 8.25 99.13)">6</text>
</g>
</svg>