<?xml version="1.0" standalone="no"?>
<!DOCTYPE svg PUBLIC "-//W3C//DTD SVG 20010904//EN"
 "http://www.w3.org/TR/2001/REC-SVG-20010904/DTD/svg10.dtd">
<svg version="1.0" xmlns="http://www.w3.org/2000/svg"
 viewBox="-15 0 174.000000 170.000000"
 preserveAspectRatio="xMidYMid meet">

<g transform="translate(0.000000,160.000000) scale(0.090000,-0.090000)"
fill="#000000" stroke="none">
<path d="M780 1295 l0 -45 -230 0 -230 0 0 -114 c0 -63 -3 -121 -6 -130 -5
-13 2 -16 45 -16 l51 0 0 85 0 85 421 0 421 0 -3 -85 -4 -85 54 0 c50 0 53 1
47 23 -3 12 -6 70 -6 130 l0 107 -230 0 -230 0 0 45 0 45 -50 0 -50 0 0 -45z"/>
<path d="M600 1100 l0 -30 -85 0 -85 0 0 -50 0 -49 85 6 85 6 0 -43 0 -42 -80
4 -80 3 0 -47 0 -48 80 0 80 0 0 -36 0 -35 -155 3 -155 3 0 -47 0 -48 147 0
147 0 -30 -31 c-42 -44 -155 -117 -211 -136 -26 -9 -49 -17 -51 -18 -2 -2 8
-26 23 -55 22 -44 29 -50 48 -44 82 25 213 127 282 219 l49 65 137 0 136 0 27
-40 c43 -65 93 -116 162 -165 50 -36 142 -85 159 -85 9 0 54 94 48 100 -5 4
-26 12 -49 18 -52 15 -148 78 -199 131 l-39 41 147 0 147 0 0 48 0 47 -155 -3
-155 -4 0 36 0 36 80 0 80 0 0 48 0 49 -80 -5 -80 -5 0 43 0 42 83 -3 82 -4 3
48 3 47 -85 0 -86 0 0 30 c0 29 -1 30 -50 30 -49 0 -50 -1 -50 -30 l0 -30
-130 0 -130 0 0 30 c0 29 -1 30 -50 30 -49 0 -50 -1 -50 -30z m360 -160 l0
-40 -130 0 -130 0 0 40 0 40 130 0 130 0 0 -40z m0 -165 l0 -35 -130 0 -130 0
0 35 0 35 130 0 130 0 0 -35z"/>
</g>
</svg>
