<?xml version="1.0" standalone="no"?>
<!DOCTYPE svg PUBLIC "-//W3C//DTD SVG 20010904//EN"
 "http://www.w3.org/TR/2001/REC-SVG-20010904/DTD/svg10.dtd">
<svg version="1.0" xmlns="http://www.w3.org/2000/svg"
 viewBox="-40 -130 470.000000 350.000000"
 preserveAspectRatio="xMidYMid meet">

<g transform="translate(0.000000,296.000000) scale(0.100000,-0.140000)"
fill="#000000" stroke="none">
<path d="M780 2031 c0 -175 -3 -339 -6 -365 l-7 -46 147 0 148 0 -4 33 -3 32
368 3 367 2 0 -65 0 -65 -594 0 -595 0 -3 -402 c-2 -222 -7 -411 -12 -420 -8
-17 3 -18 143 -18 l151 0 -7 75 -6 75 460 0 460 0 6 -80 c8 -98 28 -144 79
-177 75 -50 108 -53 725 -53 347 0 602 4 650 11 97 13 191 55 225 100 21 28
106 278 120 351 2 13 -38 51 -132 128 l-135 110 -6 -163 c-6 -177 -23 -257
-63 -304 l-24 -28 -565 0 c-626 0 -597 -3 -597 66 l0 39 595 0 595 0 0 345 0
345 -595 0 -595 0 0 65 0 65 371 0 372 0 -6 -35 -6 -35 151 0 151 0 -7 46 c-3
26 -6 190 -6 365 l0 319 -1155 0 -1155 0 0 -319z m1010 104 l0 -55 -370 0
-370 0 0 55 0 55 370 0 370 0 0 -55z m1030 0 l0 -55 -375 0 -375 0 0 55 0 55
375 0 375 0 0 -55z m-1030 -235 l0 -60 -370 0 -370 0 0 60 0 60 370 0 370 0 0
-60z m1028 3 l-3 -58 -372 -3 -373 -2 0 60 0 60 375 0 376 0 -3 -57z m-1028
-553 l0 -60 -460 0 -460 0 0 60 0 60 460 0 460 0 0 -60z m1210 0 l0 -60 -465
0 -465 0 0 60 0 60 465 0 465 0 0 -60z m-1210 -245 l0 -65 -460 0 -460 0 0 65
0 65 460 0 460 0 0 -65z m1210 0 l0 -65 -465 0 -465 0 0 65 0 65 465 0 465 0
0 -65z"/>
</g>
</svg>
