<?xml version="1.0" standalone="no"?>
<!DOCTYPE svg PUBLIC "-//W3C//DTD SVG 20010904//EN"
 "http://www.w3.org/TR/2001/REC-SVG-20010904/DTD/svg10.dtd">
<svg version="1.0" xmlns="http://www.w3.org/2000/svg"
 viewBox="0 0 106.000000 90.000000"
 preserveAspectRatio="xMidYMid meet">

<g transform="translate(0.000000,90.000000) scale(0.100000,-0.100000)"
fill="#000000" stroke="none">
<path d="M405 588 l0 -103 -30 0 -30 0 0 88 0 87 -47 0 -48 0 0 -125 0 -125
80 0 80 0 0 -30 0 -30 -110 0 -110 0 0 -45 0 -45 340 0 340 0 0 45 0 45 -105
0 -105 0 0 30 0 30 79 0 80 0 3 125 3 125 -47 0 -48 0 0 -91 0 -90 -32 3 -33
3 0 103 0 102 -47 0 -48 0 0 -170 0 -170 -35 0 -35 0 0 170 0 170 -47 0 -48 0
0 -102z"/>
</g>
</svg>
