<?xml version="1.0" standalone="no"?>
<!DOCTYPE svg PUBLIC "-//W3C//DTD SVG 20010904//EN"
 "http://www.w3.org/TR/2001/REC-SVG-20010904/DTD/svg10.dtd">
<svg version="1.0" xmlns="http://www.w3.org/2000/svg"
 viewBox="0 0 164.000000 134.000000"
 preserveAspectRatio="xMidYMid meet">

<g transform="translate(0.000000,124.000000) scale(0.100000,-0.100000)"
fill="#000000" stroke="none">
<path d="M710 890 l0 -50 -225 0 -225 0 0 -43 0 -44 225 5 225 5 0 -58 0 -57
-220 4 -220 3 0 -122 0 -123 45 0 45 0 0 80 0 80 410 0 410 0 0 -80 0 -80 48
0 47 0 -2 122 -2 121 -231 -2 -231 -3 3 54 3 53 238 -1 237 0 0 45 0 46 -241
-3 -242 -3 5 51 5 50 -53 0 -54 0 0 -50z"/>
</g>
</svg>
