<?xml version="1.0" standalone="no"?>
<!DOCTYPE svg PUBLIC "-//W3C//DTD SVG 20010904//EN"
 "http://www.w3.org/TR/2001/REC-SVG-20010904/DTD/svg10.dtd">
<svg version="1.0" xmlns="http://www.w3.org/2000/svg"
 viewBox="0 0 136.000000 112.000000"
 preserveAspectRatio="xMidYMid meet">

<g transform="translate(0.000000,112.000000) scale(0.100000,-0.100000)"
fill="#000000" stroke="none">
<path d="M350 838 l0 -43 265 3 c160 2 265 0 265 -6 0 -16 -109 -52 -156 -52
l-44 0 0 -120 0 -119 -32 -6 c-18 -3 -54 -2 -80 3 -27 5 -48 7 -48 5 0 -3 12
-27 28 -54 l27 -49 68 0 c66 0 104 11 119 34 4 6 8 59 8 118 0 107 0 108 25
114 20 5 30 0 46 -20 101 -129 177 -198 289 -266 l73 -44 33 39 c37 44 40 54
22 59 -55 16 -112 41 -160 71 l-57 36 90 87 c49 48 89 92 89 97 0 9 -74 45
-91 45 -4 0 -18 -17 -32 -37 -28 -43 -106 -123 -118 -123 -12 0 -78 72 -79 85
0 6 30 26 67 45 37 19 68 40 70 46 2 6 -10 29 -27 52 l-30 42 -315 0 -315 0 0
-42z"/>
<path d="M204 737 c-3 -8 -4 -30 -2 -49 l3 -33 138 4 c88 2 137 0 137 -7 0 -5
-33 -41 -73 -79 -70 -64 -166 -122 -230 -138 -15 -4 -27 -10 -27 -14 1 -3 18
-25 38 -48 l37 -42 99 61 c110 68 212 162 244 224 20 40 21 44 5 83 l-16 41
-158 0 c-86 0 -164 3 -173 6 -9 4 -18 0 -22 -9z"/>
<path d="M340 335 l0 -45 370 0 370 0 0 45 0 45 -370 0 -370 0 0 -45z"/>
</g>
</svg>
