<?xml version="1.0" standalone="no"?>
<!DOCTYPE svg PUBLIC "-//W3C//DTD SVG 20010904//EN"
 "http://www.w3.org/TR/2001/REC-SVG-20010904/DTD/svg10.dtd">
<svg version="1.0" xmlns="http://www.w3.org/2000/svg"
 viewBox="-50 10 476.000000 446.000000"
 preserveAspectRatio="xMidYMid meet">

<g transform="translate(0.000000,446.000000) scale(0.082000,-0.082000)"
fill="#000000" stroke="none">
<path d="M2298 3780 l4 -120 -717 0 -717 0 6 -52 c36 -322 44 -1265 13 -1598
-45 -478 -123 -807 -249 -1038 -22 -41 -38 -75 -36 -76 2 -1 63 -49 137 -105
73 -56 139 -105 145 -107 25 -10 112 223 169 452 86 341 147 907 147 1362 l0
102 1105 0 c880 0 1105 -3 1105 -13 0 -6 -4 -27 -9 -45 l-10 -32 154 0 154 0
-10 32 c-5 18 -9 183 -9 365 l0 333 -330 0 -330 0 0 91 0 90 400 -3 400 -3 0
125 0 125 -627 -3 -626 -3 7 98 c4 53 9 108 12 120 l6 23 -148 0 -149 0 3
-120z m-408 -450 l0 -90 -349 0 -348 0 -7 53 c-3 28 -6 69 -6 90 l0 37 355 0
355 0 0 -90z m860 0 l0 -90 -295 0 -295 0 0 90 0 90 295 0 295 0 0 -90z m-860
-410 l0 -100 -345 0 -345 0 0 100 0 100 345 0 345 0 0 -100z m860 0 l0 -100
-295 0 -295 0 0 100 0 100 295 0 295 0 0 -100z m660 0 l0 -100 -195 0 -195 0
0 100 0 100 195 0 195 0 0 -100z"/>
</g>
</svg>
