<?xml version="1.0" standalone="no"?>
<!DOCTYPE svg PUBLIC "-//W3C//DTD SVG 20010904//EN"
 "http://www.w3.org/TR/2001/REC-SVG-20010904/DTD/svg10.dtd">
<svg version="1.0" xmlns="http://www.w3.org/2000/svg"
 viewBox="-30 20 334.000000 332.000000"
 preserveAspectRatio="xMidYMid meet">

<g transform="translate(0.000000,332.000000) scale(0.080000,-0.080000)"
fill="#000000" stroke="none">
<path d="M1909 2528 c-120 -236 -376 -409 -714 -483 -44 -10 -82 -19 -83 -21
-3 -2 183 -250 209 -278 5 -6 16 -3 26 6 10 9 79 46 153 83 154 77 217 118
345 220 102 82 387 387 374 399 -7 7 -272 116 -280 116 -5 0 -18 -19 -30 -42z"/>
<path d="M2186 1877 c-11 -45 -85 -146 -182 -247 -215 -224 -451 -370 -769
-475 -77 -26 -141 -48 -142 -49 -3 -2 190 -263 206 -278 8 -9 349 183 476 269
241 162 415 323 599 553 58 74 105 134 104 136 -8 6 -268 114 -276 114 -6 0
-12 -10 -16 -23z"/>
</g>
</svg>
