<?xml version="1.0" standalone="no"?>
<!DOCTYPE svg PUBLIC "-//W3C//DTD SVG 20010904//EN"
 "http://www.w3.org/TR/2001/REC-SVG-20010904/DTD/svg10.dtd">
<svg version="1.0" xmlns="http://www.w3.org/2000/svg"
 viewBox="-40 -35 244.000000 216.000000"
 preserveAspectRatio="xMidYMid meet">

<g transform="translate(0.000000,216.000000) scale(0.070000,-0.110000)"
fill="#000000" stroke="none">
<path d="M380 1238 c0 -216 -3 -403 -6 -415 -6 -23 -5 -23 91 -23 l97 0 -4 38
-3 37 268 3 267 2 0 -85 c0 -124 25 -176 105 -219 39 -20 50 -21 450 -21 l410
0 47 28 c74 43 115 128 133 269 l7 54 -84 62 -83 62 -6 -112 c-5 -119 -21
-168 -58 -188 -21 -11 -648 -14 -713 -4 l-38 7 0 73 0 74 265 0 265 0 0 -40 0
-40 96 0 c84 0 95 2 90 16 -3 9 -6 195 -6 415 l0 399 -795 0 -795 0 0 -392z
m705 172 l0 -55 -267 -3 -268 -2 0 60 0 60 268 -2 267 -3 0 -55z m713 3 l-3
-58 -267 -3 -268 -2 0 53 c0 30 3 57 7 60 3 4 125 7 270 7 l264 0 -3 -57z
m-713 -293 l0 -55 -267 -3 -268 -2 0 60 0 60 268 -2 267 -3 0 -55z m715 0 l0
-60 -270 0 -270 0 0 60 0 60 270 0 270 0 0 -60z"/>
</g>
</svg>
