<?xml version="1.0" standalone="no"?>
<!DOCTYPE svg PUBLIC "-//W3C//DTD SVG 20010904//EN"
 "http://www.w3.org/TR/2001/REC-SVG-20010904/DTD/svg10.dtd">
<svg version="1.0" xmlns="http://www.w3.org/2000/svg"
 viewBox="0 0 126.000000 134.000000"
 preserveAspectRatio="xMidYMid meet">

<g transform="translate(0.000000,134.000000) scale(0.100000,-0.100000)"
fill="#000000" stroke="none">
<path d="M360 1068 l0 -48 110 0 110 0 0 -55 0 -55 -115 0 -115 0 0 -50 0 -50
40 0 40 0 0 -249 0 -248 -31 -7 c-17 -3 -45 -6 -60 -6 l-29 0 25 -51 c24 -47
29 -50 53 -44 95 24 328 71 335 68 5 -3 7 -46 6 -97 l-3 -91 47 -3 47 -3 0
109 c0 118 2 122 56 122 23 0 24 3 24 56 0 47 -3 55 -16 50 -9 -3 -27 -9 -40
-12 l-24 -6 0 206 0 206 40 0 40 0 0 50 0 50 -115 0 -115 0 0 55 0 55 110 0
110 0 0 48 0 47 -265 0 -265 0 0 -47z m370 -303 l0 -45 -100 0 -100 0 0 45 0
45 100 0 100 0 0 -45z m-2 -182 l-3 -48 -97 -3 -98 -3 0 51 0 50 101 0 100 0
-3 -47z m-3 -172 l0 -35 -80 -18 c-119 -26 -115 -27 -115 37 l0 56 98 -3 97
-3 0 -34z"/>
</g>
</svg>
