<?xml version="1.0" standalone="no"?>
<!DOCTYPE svg PUBLIC "-//W3C//DTD SVG 20010904//EN"
 "http://www.w3.org/TR/2001/REC-SVG-20010904/DTD/svg10.dtd">
<svg version="1.0" xmlns="http://www.w3.org/2000/svg"
 viewBox="-40 -30 210.000000 210.000000"
 preserveAspectRatio="xMidYMid meet">

<g transform="translate(0.000000,150.000000) scale(0.100000,-0.100000)"
fill="#000000" stroke="none">
<path d="M360 1205 l0 -45 275 0 275 0 0 -25 0 -26 -265 3 -265 3 0 -47 0 -48
265 0 265 0 0 -25 0 -26 -275 3 -275 3 0 -47 0 -48 275 0 c268 0 275 0 275
-20 0 -17 7 -20 51 -20 l52 0 -7 31 c-3 17 -6 110 -6 205 l0 174 -320 0 -320
0 0 -45z"/>
<path d="M270 710 l0 -110 50 0 50 0 0 70 0 70 318 -2 317 -3 -1 -67 -1 -68
49 0 48 0 0 110 0 110 -415 0 -415 0 0 -110z"/>
<path d="M410 635 c0 -40 2 -45 23 -45 16 0 28 -12 45 -43 12 -24 43 -67 69
-96 25 -28 44 -54 42 -55 -16 -15 -195 -68 -263 -78 l-84 -12 26 -53 c14 -29
31 -53 36 -53 24 0 244 74 312 105 l74 34 68 -30 c94 -42 281 -119 291 -119 7
0 61 91 61 103 0 4 -17 9 -37 12 -57 9 -203 55 -246 76 l-38 20 49 39 c50 39
110 106 131 148 10 19 8 27 -15 57 l-26 35 -259 0 -259 0 0 -45z m450 -49 c0
-8 -36 -42 -81 -75 -78 -59 -81 -61 -108 -46 -39 20 -121 101 -121 120 0 13
22 15 155 15 128 0 155 -3 155 -14z"/>
</g>
</svg>
