<?xml version="1.0" standalone="no"?>
<!DOCTYPE svg PUBLIC "-//W3C//DTD SVG 20010904//EN"
 "http://www.w3.org/TR/2001/REC-SVG-20010904/DTD/svg10.dtd">
<svg version="1.0" xmlns="http://www.w3.org/2000/svg"
 viewBox="-25 -25 174.000000 166.000000"
 preserveAspectRatio="xMidYMid meet">

<g transform="translate(0.000000,116.000000) scale(0.100000,-0.100000)"
fill="#000000" stroke="none">
<path d="M580 870 l0 -60 -155 0 -155 0 0 -47 0 -48 155 3 155 3 0 -45 0 -46
-135 0 -135 0 0 -185 0 -185 51 0 c50 0 51 1 45 25 l-6 25 226 0 226 0 -6 -25
c-6 -24 -5 -25 50 -25 47 0 55 3 50 16 -3 9 -6 92 -6 185 l0 168 -132 3 -133
3 0 40 0 40 155 2 155 1 3 46 3 46 -162 0 -162 0 6 60 5 60 -49 0 -49 0 0 -60z
m-90 -395 l0 -75 -45 0 -45 0 0 75 0 75 45 0 45 0 0 -75z m180 0 l0 -75 -45 0
-45 0 0 68 c0 38 3 72 7 75 3 4 24 7 45 7 l38 0 0 -75z m180 0 l0 -75 -45 0
-45 0 0 75 0 75 45 0 45 0 0 -75z"/>
</g>
</svg>
