<?xml version="1.0" standalone="no"?>
<!DOCTYPE svg PUBLIC "-//W3C//DTD SVG 20010904//EN"
 "http://www.w3.org/TR/2001/REC-SVG-20010904/DTD/svg10.dtd">
<svg version="1.0" xmlns="http://www.w3.org/2000/svg"
 viewBox="0 0 152.000000 140.000000"
 preserveAspectRatio="xMidYMid meet">

<g transform="translate(0.000000,140.000000) scale(0.100000,-0.100000)"
fill="#000000" stroke="none">
<path d="M532 1072 l-193 -2 3 -46 3 -46 368 2 c202 0 367 -2 367 -6 0 -20
-99 -141 -172 -210 -91 -85 -180 -149 -301 -214 l-76 -41 -16 32 c-13 24 -15
45 -10 85 6 49 5 54 -13 54 -11 0 -33 3 -49 6 l-29 6 -12 -73 c-17 -97 -63
-190 -128 -257 l-54 -56 23 -24 c34 -37 56 -46 74 -30 24 20 88 108 112 156
12 23 24 42 27 42 3 0 29 -21 58 -47 28 -25 83 -61 121 -80 106 -50 194 -63
429 -63 l202 0 20 52 c10 29 20 55 22 58 1 3 -127 5 -285 5 -278 0 -289 1
-328 22 -72 40 -73 37 12 88 130 79 247 171 340 269 78 82 163 202 163 231 0
6 -17 27 -37 47 l-38 36 -205 3 c-113 2 -292 3 -398 1z"/>
</g>
</svg>
