<?xml version="1.0" standalone="no"?>
<!DOCTYPE svg PUBLIC "-//W3C//DTD SVG 20010904//EN"
 "http://www.w3.org/TR/2001/REC-SVG-20010904/DTD/svg10.dtd">
<svg version="1.0" xmlns="http://www.w3.org/2000/svg"
 viewBox="-30 -30 268.000000 212.000000"
 preserveAspectRatio="xMidYMid meet">

<g transform="translate(0.000000,212.000000) scale(0.075000,-0.110000)"
fill="#000000" stroke="none">
<path d="M1035 1348 l0 -193 -78 0 -78 0 -40 105 c-37 97 -75 172 -117 228
l-17 22 -95 -21 c-52 -12 -97 -24 -99 -26 -3 -2 11 -20 30 -41 68 -72 146
-191 164 -251 l7 -23 -176 3 -176 4 0 -90 0 -90 254 3 254 3 30 -91 31 -91
-245 3 -244 3 0 -90 0 -90 895 0 895 0 0 90 0 90 -245 -3 c-135 -2 -245 -2
-245 0 0 2 13 42 30 88 l29 85 256 0 255 0 0 90 0 90 -177 -3 c-203 -5 -190
-17 -100 97 55 69 137 199 137 216 0 7 -36 17 -82 24 -46 7 -93 15 -104 17
-19 5 -24 -4 -49 -73 -14 -43 -53 -123 -84 -178 l-58 -100 -79 0 -79 0 0 193
0 192 -95 0 -95 0 0 -192 0 -193 -113 -3 -113 -3 3 196 3 195 -95 0 -95 0 0
-192z m565 -375 c0 -5 -13 -44 -29 -88 l-29 -80 -208 0 -209 0 -27 75 c-15 41
-27 81 -27 88 -1 9 58 12 264 12 146 0 265 -3 265 -7z"/>
</g>
</svg>
