<?xml version="1.0" standalone="no"?>
<!DOCTYPE svg PUBLIC "-//W3C//DTD SVG 20010904//EN"
 "http://www.w3.org/TR/2001/REC-SVG-20010904/DTD/svg10.dtd">
<svg version="1.0" xmlns="http://www.w3.org/2000/svg"
 viewBox="0 0 134.000000 98.000000"
 preserveAspectRatio="xMidYMid meet">

<g transform="translate(0.000000,98.000000) scale(0.100000,-0.100000)"
fill="#000000" stroke="none">
<path d="M390 581 c0 -135 6 -127 -95 -137 -36 -4 -65 -9 -65 -13 0 -3 10 -29
21 -57 l22 -52 36 12 c20 7 114 30 208 52 l173 39 0 51 0 51 -87 -24 c-132
-35 -123 -41 -123 87 l0 110 -45 0 -45 0 0 -119z"/>
<path d="M662 690 c-18 -4 -35 -10 -38 -12 -8 -8 86 -130 145 -187 93 -91 188
-144 298 -166 30 -6 33 -4 57 44 15 28 26 54 26 59 0 5 -30 12 -66 15 -49 3
-85 14 -132 38 -36 19 -67 39 -69 45 -2 5 14 18 34 28 38 17 163 96 163 101 0
8 -69 45 -84 45 -9 0 -40 -18 -69 -40 -29 -21 -69 -46 -89 -54 -36 -16 -37
-15 -63 16 -15 18 -32 43 -38 55 -11 24 -21 26 -75 13z"/>
</g>
</svg>
