<?xml version="1.0" standalone="no"?>
<!DOCTYPE svg PUBLIC "-//W3C//DTD SVG 20010904//EN"
 "http://www.w3.org/TR/2001/REC-SVG-20010904/DTD/svg10.dtd">
<svg version="1.0" xmlns="http://www.w3.org/2000/svg"
 viewBox="-5 -20 154.000000 122.000000"
 preserveAspectRatio="xMidYMid meet">

<g transform="translate(0.000000,122.000000) scale(0.090000,-0.11000)"
fill="#000000" stroke="none">
<path d="M457 743 c-2 -5 -10 -32 -18 -60 l-13 -53 -83 0 -83 0 0 -40 0 -40
70 0 70 0 -6 -27 c-4 -16 -11 -38 -15 -51 -5 -13 -9 -28 -9 -33 0 -6 152 -8
397 -7 l397 3 14 58 14 57 64 0 64 0 0 40 0 40 -55 0 c-30 0 -55 1 -55 3 0 1
7 24 15 51 8 27 15 53 15 58 0 10 -777 11 -783 1z m323 -60 c0 -5 -3 -18 -6
-30 -6 -22 -10 -23 -135 -23 -71 0 -129 2 -129 4 0 3 4 16 10 30 10 26 10 26
135 26 69 0 125 -3 125 -7z m354 -1 c3 -5 2 -18 -1 -30 -5 -21 -10 -22 -144
-22 l-138 0 10 30 11 30 128 0 c71 0 131 -4 134 -8z m-403 -154 c-8 -22 -14
-23 -130 -26 -112 -2 -121 -1 -121 16 0 10 3 22 7 25 3 4 62 7 129 7 l123 0
-8 -22z m371 -3 l-4 -25 -145 0 c-79 0 -142 3 -140 8 2 4 7 15 10 25 6 15 22
17 145 17 l139 0 -5 -25z"/>
</g>
</svg>
