<?xml version="1.0" standalone="no"?>
<!DOCTYPE svg PUBLIC "-//W3C//DTD SVG 20010904//EN"
 "http://www.w3.org/TR/2001/REC-SVG-20010904/DTD/svg10.dtd">
<svg version="1.0" xmlns="http://www.w3.org/2000/svg"
 viewBox="0 0 134.000000 132.000000"
 preserveAspectRatio="xMidYMid meet">

<g transform="translate(0.000000,132.000000) scale(0.100000,-0.100000)"
fill="#000000" stroke="none">
<path d="M640 1085 l0 -45 -177 -2 -178 -3 0 -45 0 -45 178 -3 177 -2 0 -40 0
-39 -122 -3 -123 -3 -3 -308 -2 -307 50 0 c43 0 50 3 50 20 0 19 7 20 220 20
213 0 220 -1 220 -20 0 -17 7 -20 50 -20 l50 0 -2 307 -3 308 -142 3 -143 3 0
39 0 40 205 0 205 0 0 50 0 50 -205 0 -205 0 0 45 0 45 -50 0 -50 0 0 -45z
m290 -355 l0 -40 -220 0 -220 0 0 40 0 40 220 0 220 0 0 -40z m0 -160 l0 -40
-220 0 -220 0 0 40 0 40 220 0 220 0 0 -40z m0 -160 l0 -40 -220 0 -220 0 0
40 0 40 220 0 220 0 0 -40z"/>
</g>
</svg>
