<?xml version="1.0" standalone="no"?>
<!DOCTYPE svg PUBLIC "-//W3C//DTD SVG 20010904//EN"
 "http://www.w3.org/TR/2001/REC-SVG-20010904/DTD/svg10.dtd">
<svg version="1.0" xmlns="http://www.w3.org/2000/svg"
 viewBox="0 0 142.000000 120.000000"
 preserveAspectRatio="xMidYMid meet">

<g transform="translate(0.000000,120.000000) scale(0.100000,-0.100000)"
fill="#000000" stroke="none">
<path d="M150 870 l0 -110 44 0 45 0 4 43 c2 23 4 -24 5 -105 l2 -148 285 0
c265 0 285 1 286 18 0 15 2 14 10 -3 5 -11 13 -32 19 -47 l9 -28 88 31 c48 17
130 52 181 78 l93 46 -34 33 -33 32 -56 -30 c-66 -36 -176 -75 -235 -84 l-43
-6 0 135 0 135 -44 0 -43 0 5 -50 c2 -27 2 -50 -1 -50 -12 0 -77 34 -77 40 0
4 9 15 20 25 26 23 25 29 -5 45 -24 13 -28 11 -61 -21 l-35 -34 3 29 c3 26 -1
30 -41 44 -44 15 -45 15 -66 -12 -19 -24 -24 -25 -54 -15 -29 10 -35 9 -53 -9
l-20 -20 48 -22 c27 -11 60 -28 73 -37 l23 -15 -28 -19 c-40 -26 -49 -24 -29
7 9 14 15 27 13 29 -2 1 -23 10 -48 18 -43 15 -45 14 -57 -6 -11 -20 -12 -17
-13 26 l0 47 -45 0 c-41 0 -45 2 -45 25 l0 25 470 0 470 0 0 -75 0 -75 45 0
45 0 0 110 0 110 -560 0 -560 0 0 -110z m377 -42 c37 -16 36 -15 28 -27 -7
-12 -24 -5 -60 23 -24 18 -7 21 32 4z m97 -63 c-7 -16 -24 -21 -24 -6 0 8 7
13 27 20 1 1 0 -6 -3 -14z m-224 -41 c11 -5 7 -10 -15 -20 -45 -20 -55 -17
-55 16 0 32 -1 32 70 4z m336 -100 c-5 -13 -76 -21 -76 -9 0 3 7 17 16 31 16
24 16 26 -12 56 l-29 30 32 -16 c41 -21 41 -21 56 12 11 25 12 24 15 -32 2
-32 1 -65 -2 -72z m-141 55 c51 -47 57 -69 19 -69 -23 0 -25 3 -19 29 6 28 4
31 -34 42 -40 12 -48 19 -34 32 12 13 23 7 68 -34z m-181 -30 c58 25 56 25 56
7 0 -8 14 -17 30 -21 60 -13 27 -25 -70 -25 l-100 0 0 31 0 31 18 -22 18 -23
48 22z"/>
<path d="M1075 884 c-35 -28 -137 -73 -192 -85 -32 -8 -53 -17 -53 -26 0 -28
30 -85 42 -81 7 3 42 15 78 27 36 12 98 41 139 65 l73 44 -33 36 c-32 33 -35
35 -54 20z"/>
<path d="M690 524 c-77 -19 -252 -44 -305 -44 -41 0 -45 2 -45 25 0 23 -4 25
-45 25 l-45 0 0 -98 c0 -151 -17 -142 266 -142 144 0 243 4 255 10 11 6 25 25
32 42 l12 30 24 -49 23 -50 91 32 c99 35 317 134 317 144 0 4 -12 21 -27 39
l-28 33 -75 -40 c-128 -68 -320 -123 -320 -92 0 4 -22 18 -50 29 l-50 21 0
-34 c0 -45 -7 -46 -204 -43 -137 3 -160 5 -170 20 -5 9 -8 19 -5 22 3 3 61 10
130 16 183 15 309 31 315 41 6 11 -22 79 -33 78 -4 -1 -33 -7 -63 -15z"/>
</g>
</svg>
