<?xml version="1.0" standalone="no"?>
<!DOCTYPE svg PUBLIC "-//W3C//DTD SVG 20010904//EN"
 "http://www.w3.org/TR/2001/REC-SVG-20010904/DTD/svg10.dtd">
<svg version="1.0" xmlns="http://www.w3.org/2000/svg"
 viewBox="-30 -30 200.000000 200.000000"
 preserveAspectRatio="xMidYMid meet">

<g transform="translate(0.000000,140.000000) scale(0.100000,-0.100000)"
fill="#000000" stroke="none">
<path d="M510 1240 l0 -51 -147 2 -148 1 -3 -46 -3 -46 150 0 151 0 0 -35 c0
-35 0 -35 45 -35 45 0 45 0 45 35 l0 35 130 0 130 0 0 -24 c0 -16 7 -26 23
-30 38 -9 67 4 67 30 l0 24 151 0 150 0 -3 46 -3 46 -147 -1 -148 -2 0 51 0
50 -45 0 -45 0 0 -50 0 -50 -130 0 -130 0 0 50 0 50 -45 0 -45 0 0 -50z"/>
<path d="M281 1026 l-44 -23 44 -31 c24 -16 66 -53 93 -80 l49 -50 40 26 40
27 -74 68 c-41 37 -81 72 -89 77 -10 5 -31 0 -59 -14z"/>
<path d="M206 781 l-37 -38 38 -11 c21 -6 64 -27 97 -47 32 -19 62 -35 66 -35
4 0 19 15 34 34 30 40 32 38 -80 94 l-81 41 -37 -38z"/>
<path d="M362 511 c-24 -73 -63 -140 -125 -214 l-40 -49 40 -39 40 -40 45 68
c58 85 111 192 131 260 l16 52 -43 14 -43 15 -21 -67z"/>
</g>
</svg>
