<?xml version="1.0" standalone="no"?>
<!DOCTYPE svg PUBLIC "-//W3C//DTD SVG 20010904//EN"
 "http://www.w3.org/TR/2001/REC-SVG-20010904/DTD/svg10.dtd">
<svg version="1.0" xmlns="http://www.w3.org/2000/svg"
 viewBox="0 0 130.000000 138.000000"
 preserveAspectRatio="xMidYMid meet">

<g transform="translate(0.000000,138.000000) scale(0.100000,-0.100000)"
fill="#000000" stroke="none">
<path d="M620 1130 l0 -40 -128 0 c-128 0 -129 0 -140 -25 -27 -60 -25 -60
128 -57 l140 4 0 -37 0 -36 -160 3 c-173 3 -170 4 -170 -53 l0 -29 380 0 380
0 0 43 0 43 -165 -4 -165 -4 0 37 0 37 140 -4 140 -3 0 45 0 45 -140 -3 -140
-3 0 40 0 41 -50 0 -50 0 0 -40z"/>
<path d="M350 681 c0 -71 -3 -136 -6 -145 -5 -13 2 -16 45 -16 48 0 51 2 51
25 0 25 1 25 80 25 44 0 80 -2 80 -5 0 -3 -27 -23 -59 -44 -65 -41 -160 -84
-228 -101 -49 -12 -54 -27 -23 -78 25 -40 23 -41 180 36 63 31 119 58 123 61
5 2 7 -42 5 -98 l-3 -101 48 0 47 0 0 80 c0 44 4 80 9 80 5 0 28 -11 53 -25
24 -13 90 -45 147 -69 l102 -45 24 52 24 52 -74 20 c-40 11 -76 23 -80 26 -3
4 17 25 45 49 27 23 47 46 44 51 -3 5 -22 18 -43 29 l-38 19 -29 -30 c-16 -17
-42 -40 -57 -51 l-29 -21 -49 23 c-55 26 -59 37 -26 68 21 20 34 22 150 22
l127 0 0 120 0 120 -320 0 -320 0 0 -129z m540 4 l0 -35 -222 2 -223 3 -3 33
-3 32 225 0 226 0 0 -35z"/>
</g>
</svg>
