<?xml version="1.0" standalone="no"?>
<!DOCTYPE svg PUBLIC "-//W3C//DTD SVG 20010904//EN"
 "http://www.w3.org/TR/2001/REC-SVG-20010904/DTD/svg10.dtd">
<svg version="1.0" xmlns="http://www.w3.org/2000/svg"
 viewBox="0 25 332.000000 336.000000"
 preserveAspectRatio="xMidYMid meet">

<g transform="translate(0.000000,336.000000) scale(0.080000,-0.080000)"
fill="#000000" stroke="none">
<path d="M1536 2898 c9 -24 18 -94 21 -155 l6 -113 -345 0 -346 0 -6 23 c-3
12 -6 32 -6 44 0 28 -18 40 -26 16 -46 -149 -92 -209 -218 -290 -96 -62 -116
-86 -116 -139 0 -30 6 -50 20 -64 95 -95 273 54 329 277 l17 68 787 3 787 2 0
-26 c0 -14 -7 -53 -16 -86 -23 -92 -18 -95 67 -31 l75 56 86 -2 c78 -2 87 0
101 19 11 17 13 29 6 48 -12 31 -187 175 -219 180 -13 2 -41 -14 -79 -47 l-59
-51 -346 0 -346 0 0 63 c0 62 0 63 46 101 32 27 44 44 42 59 -3 19 -20 26
-128 54 -69 17 -130 32 -137 32 -9 1 -8 -10 3 -41z"/>
<path d="M1795 2426 c7 -30 16 -82 20 -115 l7 -61 -216 0 -216 0 0 34 c0 27 7
39 30 56 18 13 30 30 30 44 0 21 -11 26 -115 56 -64 18 -117 31 -120 29 -2 -3
0 -22 5 -44 5 -22 13 -71 18 -109 l9 -69 -204 7 c-111 3 -203 4 -203 1 0 -3
11 -28 26 -56 23 -45 28 -50 52 -45 52 11 208 26 270 26 l62 0 0 -125 0 -125
-57 0 c-32 0 -155 5 -273 10 -118 5 -216 8 -218 6 -2 -2 9 -27 25 -55 28 -51
28 -52 68 -46 91 13 256 24 353 25 l102 0 0 -145 0 -145 -147 0 c-82 0 -255 5
-386 11 -132 6 -241 8 -244 5 -3 -2 8 -28 24 -56 22 -40 32 -50 48 -46 60 15
306 27 488 24 l208 -3 -42 -60 c-160 -226 -396 -454 -661 -638 -151 -104 -104
-106 99 -3 263 132 557 380 734 620 l64 86 215 0 216 0 30 -62 c118 -248 421
-544 663 -649 l85 -36 61 61 c38 37 85 72 123 90 34 16 62 33 62 36 0 4 -36
10 -81 14 -210 17 -420 93 -592 212 -96 68 -262 231 -295 292 l-23 42 445 0
c244 0 451 3 460 6 30 12 16 40 -56 111 -76 73 -104 93 -125 86 -7 -2 -35 -36
-64 -74 l-51 -69 -274 0 -274 0 0 145 0 145 243 2 c239 3 242 3 245 25 2 16
-15 36 -68 82 -39 34 -79 61 -90 61 -10 0 -40 -24 -66 -55 l-48 -55 -108 0
-108 0 0 125 0 125 229 0 c126 0 236 3 245 6 34 13 15 44 -59 99 -41 30 -83
55 -93 55 -10 0 -35 -20 -55 -45 l-38 -45 -114 0 -115 0 0 36 c0 30 7 43 42
73 60 54 51 64 -81 95 -149 35 -141 37 -126 -28z m25 -371 l0 -125 -215 0
-215 0 0 125 0 125 215 0 215 0 0 -125z m0 -330 l0 -145 -215 0 -215 0 0 145
0 145 215 0 215 0 0 -145z"/>
</g>
</svg>
