<?xml version="1.0" standalone="no"?>
<!DOCTYPE svg PUBLIC "-//W3C//DTD SVG 20010904//EN"
 "http://www.w3.org/TR/2001/REC-SVG-20010904/DTD/svg10.dtd">
<svg version="1.0" xmlns="http://www.w3.org/2000/svg"
 viewBox="0 -10 250.000000 220.000000"
 preserveAspectRatio="xMidYMid meet">

<g transform="translate(0.000000,190.000000) scale(0.080000,-0.100000)"
fill="#000000" stroke="none">
<path d="M1100 1376 c0 -2 7 -21 16 -41 8 -21 18 -78 21 -128 l6 -90 -339 7
c-186 3 -352 9 -367 12 l-28 7 23 -47 c20 -42 25 -47 48 -41 14 4 168 9 343
12 l317 5 0 -121 0 -121 -310 0 -310 0 0 35 c0 19 -4 35 -10 35 -5 0 -10 -4
-10 -10 0 -24 -44 -123 -67 -151 -15 -17 -51 -49 -82 -71 -93 -68 -110 -102
-73 -148 39 -48 126 -15 183 70 30 45 59 126 59 166 l0 22 318 7 c335 8 1039
2 1050 -10 4 -3 -12 -43 -36 -89 -23 -45 -42 -86 -42 -89 0 -8 85 33 140 68
21 13 60 24 98 28 76 8 82 11 82 41 0 16 -20 39 -67 77 -93 75 -87 73 -136 44
l-44 -25 -311 0 -312 0 0 120 0 120 359 0 c431 0 421 -3 316 96 -37 35 -76 64
-85 64 -10 0 -36 -25 -59 -55 l-42 -55 -244 0 -245 0 0 63 c1 59 2 63 33 82
36 23 47 59 21 69 -21 8 -189 46 -204 46 -5 0 -10 -2 -10 -4z"/>
</g>
</svg>
