<?xml version="1.0" standalone="no"?>
<!DOCTYPE svg PUBLIC "-//W3C//DTD SVG 20010904//EN"
 "http://www.w3.org/TR/2001/REC-SVG-20010904/DTD/svg10.dtd">
<svg version="1.0" xmlns="http://www.w3.org/2000/svg"
 viewBox="-200 -200 846.000000 910.000000"
 preserveAspectRatio="xMidYMid meet">

<g transform="translate(0.000000,560.000000) scale(0.100000,-0.100000)"
fill="#000000" stroke="none">
<path d="M3593 5225 c-13 -9 -50 -52 -83 -96 l-61 -79 -612 0 c-616 0 -1073
11 -1350 30 -82 6 -151 9 -153 7 -2 -2 23 -53 55 -113 68 -126 42 -116 242
-90 235 31 383 35 1117 36 l732 0 0 -246 0 -246 -787 5 c-586 4 -847 9 -1018
21 -126 9 -240 16 -252 14 -21 -3 -18 -9 41 -113 48 -85 66 -110 82 -108 10 1
72 9 137 17 219 29 492 37 1152 34 l650 -3 3 -272 2 -273 -732 0 c-686 0
-1109 9 -1379 29 -63 5 -116 7 -117 5 -4 -2 102 -198 119 -220 6 -7 31 -7 85
3 247 42 335 46 1186 50 l826 5 6 -31 c3 -17 9 -44 12 -61 8 -43 38 -60 107
-60 96 0 159 44 185 130 21 71 22 112 7 330 -8 124 -15 359 -15 529 l0 306 59
38 c103 66 151 114 151 150 0 18 -6 39 -13 48 -10 13 -180 142 -272 206 -44
30 -85 37 -112 18z"/>
<path d="M1227 3241 c-19 -60 -55 -149 -78 -198 -39 -82 -53 -99 -201 -247
-87 -87 -166 -173 -175 -190 -27 -50 -23 -133 9 -187 70 -119 226 -103 340 35
91 109 171 315 186 481 l7 80 1228 3 c675 1 1227 0 1227 -2 0 -12 -75 -217
-119 -325 -28 -69 -51 -129 -51 -135 0 -5 7 -17 16 -27 15 -17 20 -14 93 45
130 107 278 214 314 225 19 7 97 15 173 20 150 8 176 17 195 63 24 60 -1 90
-293 359 -131 119 -132 119 -272 -1 l-105 -90 -1204 0 -1205 0 -11 83 c-14 95
-19 117 -30 117 -4 0 -24 -49 -44 -109z"/>
<path d="M3150 2583 c-8 -3 -49 -39 -92 -81 l-76 -75 -609 6 c-535 5 -836 15
-981 32 -32 3 -43 1 -40 -8 2 -6 30 -60 62 -118 l59 -106 46 9 c50 9 255 36
257 34 0 0 33 -63 72 -140 113 -219 258 -430 415 -606 l76 -85 -27 -23 c-58
-49 -303 -232 -373 -279 -281 -189 -624 -354 -1032 -498 -105 -37 -123 -49
-91 -62 46 -17 484 79 729 161 320 107 661 283 912 472 l72 54 108 -79 c333
-245 781 -454 1315 -614 l118 -35 52 67 c104 132 155 184 239 241 48 31 92 59
99 62 8 2 10 12 6 25 -6 19 -15 20 -229 26 -309 8 -509 42 -782 132 -172 56
-314 117 -465 198 -74 39 -245 140 -257 151 -1 1 46 50 103 110 122 127 241
273 357 438 48 68 90 119 102 122 11 2 44 9 74 15 110 23 159 63 146 121 -9
42 -262 314 -306 329 -35 12 -37 12 -59 4z m-165 -305 c-11 -37 -87 -177 -146
-268 -65 -102 -190 -261 -272 -347 l-59 -62 -77 62 c-110 89 -272 248 -360
353 -102 122 -195 253 -186 262 14 14 159 19 628 20 l478 2 -6 -22z"/>
</g>
</svg>
