<?xml version="1.0" standalone="no"?>
<!DOCTYPE svg PUBLIC "-//W3C//DTD SVG 20010904//EN"
 "http://www.w3.org/TR/2001/REC-SVG-20010904/DTD/svg10.dtd">
<svg version="1.0" xmlns="http://www.w3.org/2000/svg"
 viewBox="-100 -100 934.000000 882.000000"
 preserveAspectRatio="xMidYMid meet">

<g transform="translate(0.000000,682.000000) scale(0.100000,-0.100000)"
fill="#000000" stroke="none">
<path d="M3222 5588 c50 -160 67 -308 77 -667 l6 -234 -410 6 c-401 7 -615 15
-963 38 -95 6 -175 9 -177 7 -2 -2 37 -79 88 -171 92 -167 92 -168 122 -162
17 3 89 15 160 25 277 41 428 52 808 57 l377 5 -2 -443 -3 -444 -550 -2 -550
-3 -275 148 c-151 82 -276 148 -278 147 -1 -1 4 -72 13 -156 29 -301 35 -572
25 -1189 -6 -327 -15 -660 -21 -740 -27 -392 -25 -416 32 -465 26 -21 40 -25
98 -25 122 0 240 49 287 120 24 36 27 51 33 182 l6 143 1443 3 1442 2 0 -90
c0 -157 32 -196 153 -188 127 8 231 72 275 167 l25 54 -12 166 c-9 137 -22
509 -43 1228 l-3 91 76 46 c42 25 92 64 113 86 38 42 44 71 25 113 -11 25
-347 327 -377 339 -10 4 -37 7 -62 7 -44 1 -47 -1 -135 -94 l-90 -95 -612 0
-613 0 0 445 0 444 1043 3 c799 2 1048 6 1070 15 40 18 52 57 32 110 -13 35
-47 69 -185 188 -93 80 -197 170 -231 200 -64 57 -120 82 -161 71 -12 -3 -113
-92 -223 -196 l-200 -190 -572 0 -573 0 0 210 0 209 97 86 c95 83 132 130 133
168 0 31 -31 74 -65 90 -26 13 -670 197 -687 197 -3 0 3 -28 14 -62z m-462
-2903 l0 -725 -320 0 -320 0 0 725 0 725 320 0 320 0 0 -725z m1100 0 l0 -725
-345 0 -345 0 0 725 0 725 345 0 345 0 0 -725z m1160 0 l0 -725 -385 0 -385 0
0 718 c0 395 3 722 7 725 3 4 177 7 385 7 l378 0 0 -725z"/>
</g>
</svg>
