<?xml version="1.0" standalone="no"?>
<!DOCTYPE svg PUBLIC "-//W3C//DTD SVG 20010904//EN"
 "http://www.w3.org/TR/2001/REC-SVG-20010904/DTD/svg10.dtd">
<svg version="1.0" xmlns="http://www.w3.org/2000/svg"
 viewBox="-100 -40 536.000000 506.000000"
 preserveAspectRatio="xMidYMid meet">

<g transform="translate(0.000000,406.000000) scale(0.100000,-0.100000)"
fill="#000000" stroke="none">
<path d="M1620 3627 c0 -1 6 -36 14 -77 8 -41 17 -126 21 -189 l7 -114 -398 7
c-220 3 -421 9 -448 13 l-49 6 39 -72 c35 -65 41 -71 64 -66 89 19 212 27 484
32 l309 6 -5 -144 c-3 -84 -1 -153 5 -166 21 -48 110 -41 157 13 l31 35 -7
130 -7 129 317 0 316 0 0 -111 c0 -61 4 -119 10 -129 21 -40 138 -32 160 11 7
12 10 63 8 124 l-3 105 450 2 450 3 3 23 c4 29 -2 37 -116 139 -62 54 -102 83
-117 83 -19 0 -37 -19 -82 -85 l-58 -85 -267 0 -268 0 0 95 0 95 45 21 c49 23
67 55 42 74 -17 12 -286 89 -292 83 -2 -2 3 -28 11 -58 8 -30 18 -112 22 -182
l7 -128 -317 0 -318 0 0 90 0 89 43 19 c23 10 48 26 55 34 25 31 2 47 -132 88
-72 23 -143 45 -158 50 -16 5 -28 8 -28 7z"/>
<path d="M1110 2857 c0 -2 23 -27 51 -57 73 -78 121 -144 169 -230 58 -103 75
-120 121 -120 68 0 105 80 73 159 -20 50 -107 132 -178 168 -70 35 -236 92
-236 80z"/>
<path d="M1545 2149 c-387 -675 -406 -699 -577 -699 -32 0 -58 -3 -58 -7 1 -5
26 -25 56 -47 65 -44 126 -132 144 -204 9 -38 8 -74 -5 -178 -20 -165 -21
-234 -1 -272 49 -95 175 -91 219 7 29 66 19 164 -32 316 -26 74 -41 137 -41
167 0 49 32 127 360 873 184 417 194 445 171 445 -3 0 -109 -181 -236 -401z"/>
<path d="M850 2332 c0 -4 35 -43 78 -88 42 -44 93 -106 112 -138 19 -32 49
-74 67 -94 28 -33 37 -37 78 -37 86 0 118 71 74 162 -25 51 -62 84 -140 124
-76 38 -269 89 -269 71z"/>
</g>
</svg>
